<!-- Generated by IcoMoon.io -->
<svg version="1.1" xmlns="http://www.w3.org/2000/svg" width="768" height="768" viewBox="0 0 768 768">
<title></title>
<g id="icomoon-ignore">
</g>
<path fill="#000" d="M704 64h-640c-35.3 0-64 28.7-64 64v512c0 35.3 28.7 64 64 64h640c35.3 0 64-28.7 64-64v-512c0-35.3-28.7-64-64-64zM704 640h-640v-512h640v512c0.1 0 0 0 0 0z"></path>
<path fill="#000" d="M656 160h-544c-8.8 0-16 7.2-16 16v416c0 8.8 7.2 16 16 16h544c8.8 0 16-7.2 16-16v-416c0-8.8-7.2-16-16-16zM640 576h-512v-384h512v384z"></path>
<path fill="#000" d="M204.3 458.9l109-77.9c4.2-3 6.7-7.9 6.7-13s-2.5-10-6.7-13l-109-77.9-18.6 26 90.8 64.9-90.8 64.9 18.6 26z"></path>
<path fill="#000" d="M352 480h160v32h-160v-32z"></path>
</svg>
