<!-- Generated by IcoMoon.io -->
<svg version="1.1" xmlns="http://www.w3.org/2000/svg" width="768" height="768" viewBox="0 0 768 768">
<title></title>
<g id="icomoon-ignore">
</g>
<path fill="#000" d="M564.896 235.104c49.984 50.016 74.976 115.456 74.944 181.024s-25.024 131.008-75.008 180.992-115.456 74.976-181.024 74.944-131.008-25.024-180.992-75.008c-49.984-49.984-74.944-115.456-74.944-180.992s24.992-131.008 74.944-180.992c12.48-12.512 12.48-32.768 0-45.248s-32.768-12.48-45.248 0c-62.432 62.464-93.696 144.384-93.696 226.208s31.232 163.776 93.696 226.24c62.464 62.496 144.416 93.76 226.272 93.76s163.808-31.232 226.304-93.696 93.76-144.416 93.76-226.272-31.232-163.808-93.696-226.304c-12.48-12.512-32.768-12.512-45.248 0s-12.512 32.768 0 45.248zM352 64v320c0 17.664 14.336 32 32 32s32-14.336 32-32v-320c0-17.664-14.336-32-32-32s-32 14.336-32 32z"></path>
</svg>
