<!-- Generated by IcoMoon.io -->
<svg version="1.1" xmlns="http://www.w3.org/2000/svg" width="1024" height="1024" viewBox="0 0 1024 1024">
<title></title>
<g id="icomoon-ignore">
</g>
<path fill="#000" d="M543.577 741.314c37.507 13.059 64.423 48.729 64.423 90.686 0 53.019-42.981 96-96 96s-96-42.981-96-96c0-41.959 26.919-77.632 64.43-90.688-0.283-1.715-0.43-3.476-0.43-5.272v-608.080c0-17.924 14.327-31.96 32-31.96 17.796 0 32 14.309 32 31.96v608.080c0 1.801-0.145 3.562-0.423 5.274v0zM576 721.124v-593.009c0-35.41-28.407-64.115-64-64.115-35.346 0-64 28.472-64 64.115v593.009c-38.259 22.132-64 63.498-64 110.876 0 70.692 57.308 128 128 128s128-57.308 128-128c0-47.378-25.741-88.744-64-110.876zM608 703.988c38.862 29.191 64 75.666 64 128.012 0 88.366-71.634 160-160 160s-160-71.634-160-160c0-52.346 25.138-98.821 64-128.012v-576.284c0-52.693 42.981-95.704 96-95.704 52.911 0 96 42.848 96 95.704v576.284z"></path>
</svg>
