<!-- Generated by IcoMoon.io -->
<svg version="1.1" xmlns="http://www.w3.org/2000/svg" width="768" height="768" viewBox="0 0 768 768">
<title></title>
<g id="icomoon-ignore">
</g>
<path fill="#000" d="M384 544c52.9 0 96 43.1 96 96s-43.1 96-96 96-96-43.1-96-96 43.1-96 96-96zM384 672c17.6 0 32-14.4 32-32s-14.4-32-32-32c-17.6 0-32 14.4-32 32s14.4 32 32 32z"></path>
<path fill="#000" d="M501.2 487.9l12.7 9.8-19.6 25.3-12.7-9.8c-57.5-44.5-137.8-44.5-195.3 0l-12.7 9.8-19.6-25.3 12.7-9.8c69-53.3 165.5-53.3 234.5 0z"></path>
<path fill="#000" d="M61.5 284.5c38.5-35 82.1-63.3 129.6-84.1 45.7-20.1 94.1-32.8 143.9-37.9 30.8-76.4 105.7-130.5 193-130.5 114.7 0 208 93.3 208 208s-93.3 208-208 208c-58.8 0-112-24.5-149.8-63.9-58.6 1.4-115.2 22.8-159.8 60.7l-12.2 10.4-20.8-24.4 12.2-10.4c44.2-37.6 98.8-60.8 156.2-66.9-12.1-18.5-21.4-39-27.1-60.9-65.5 10.7-126.1 39.4-175.9 83.6l-12 10.6-21.2-24 12-10.6c54.2-48 120.1-79.3 191.4-91.1-0.7-7-1.1-14.1-1.1-21.2 0-15.1 1.6-29.9 4.7-44.1-90.4 11.9-173.5 50.4-241.6 112.2l-11.8 10.8-21.6-23.6 11.9-10.7zM528 416c97 0 176-79 176-176s-79-176-176-176-176 79-176 176 79 176 176 176z"></path>
<path fill="#000" d="M432 224h16v-16c0-44.1 35.9-80 80-80s80 35.9 80 80v16h16c8.8 0 16 7.2 16 16v96c0 8.8-7.2 16-16 16h-192c-8.8 0-16-7.2-16-16v-96c0-8.8 7.2-16 16-16zM576 208c0-26.5-21.5-48-48-48s-48 21.5-48 48v16h96v-16zM448 320h160v-64h-160v64z"></path>
</svg>
