<!-- Generated by IcoMoon.io -->
<svg version="1.1" xmlns="http://www.w3.org/2000/svg" width="768" height="768" viewBox="0 0 768 768">
<title></title>
<g id="icomoon-ignore">
</g>
<path fill="#000" d="M384 480c-52.9 0-96 43.1-96 96s43.1 96 96 96 96-43.1 96-96-43.1-96-96-96zM384 608c-17.6 0-32-14.4-32-32s14.4-32 32-32c17.6 0 32 14.4 32 32s-14.4 32-32 32z"></path>
<path fill="#000" d="M501.3 423.9c-69-53.4-165.4-53.4-234.5 0l-12.7 9.8 19.6 25.3 12.7-9.8c57.5-44.5 137.8-44.5 195.3 0l12.7 9.8 19.6-25.3-12.7-9.8z"></path>
</svg>
